<mxfile host="65bd71144e">
    <diagram id="GNZeIuHt5u27hqwlZGJc" name="Page-1">
        <mxGraphModel dx="1039" dy="474" grid="1" gridSize="10" guides="1" tooltips="1" connect="1" arrows="1" fold="1" page="1" pageScale="1" pageWidth="850" pageHeight="1100" math="0" shadow="0">
            <root>
                <mxCell id="0"/>
                <mxCell id="1" parent="0"/>
                <mxCell id="2" value="Departmanlar&amp;nbsp;" style="rounded=1;whiteSpace=wrap;html=1;" vertex="1" parent="1">
                    <mxGeometry x="60" y="100" width="170" height="660" as="geometry"/>
                </mxCell>
                <mxCell id="3" value="" style="rounded=1;whiteSpace=wrap;html=1;" vertex="1" parent="1">
                    <mxGeometry x="250" y="100" width="580" height="650" as="geometry"/>
                </mxCell>
                <mxCell id="4" value="Aranacak Proje Adı" style="rounded=1;whiteSpace=wrap;html=1;" vertex="1" parent="1">
                    <mxGeometry x="320" y="120" width="450" height="60" as="geometry"/>
                </mxCell>
                <mxCell id="5" value="Proje Adı - Açıklaması - Başlangıç...." style="rounded=1;whiteSpace=wrap;html=1;" vertex="1" parent="1">
                    <mxGeometry x="320" y="200" width="450" height="150" as="geometry"/>
                </mxCell>
                <mxCell id="6" value="Görevler" style="rounded=1;whiteSpace=wrap;html=1;" vertex="1" parent="1">
                    <mxGeometry x="325" y="290" width="200" height="60" as="geometry"/>
                </mxCell>
                <mxCell id="7" value="Proje Adı - Açıklaması - Başlangıç...." style="rounded=1;whiteSpace=wrap;html=1;" vertex="1" parent="1">
                    <mxGeometry x="310" y="560" width="450" height="150" as="geometry"/>
                </mxCell>
                <mxCell id="8" value="Görevler" style="rounded=1;whiteSpace=wrap;html=1;" vertex="1" parent="1">
                    <mxGeometry x="320" y="645" width="200" height="60" as="geometry"/>
                </mxCell>
                <mxCell id="9" value="Proje Adı - Açıklaması - Başlangıç...." style="rounded=1;whiteSpace=wrap;html=1;" vertex="1" parent="1">
                    <mxGeometry x="315" y="370" width="450" height="150" as="geometry"/>
                </mxCell>
                <mxCell id="10" value="Görevler" style="rounded=1;whiteSpace=wrap;html=1;" vertex="1" parent="1">
                    <mxGeometry x="335" y="460" width="200" height="60" as="geometry"/>
                </mxCell>
                <mxCell id="11" value="Header Menu" style="rounded=1;whiteSpace=wrap;html=1;" vertex="1" parent="1">
                    <mxGeometry x="70" y="20" width="760" height="60" as="geometry"/>
                </mxCell>
            </root>
        </mxGraphModel>
    </diagram>
</mxfile>